# xmcd CD database file
#
# Track frame offsets:
#	150
#	24135
#	95464
#	136023
#	166278
#	216200
#
# Disc length: 3335 seconds
#
# Revision: 0
# Processed by: cddbd v1.5.2PL0 Copyright (c) Steve Scherf et al.
# Submitted via: CDex 1.70beta2
#
DISCID=410d0506
DTITLE=Liebman/Tarenzi/Benedettini/Arco - Dream Of Nite
DYEAR=2007
DGENRE=Jazz
TTITLE0=Unsteady
TTITLE1=Feel
TTITLE2=Fran-Dance
TTITLE3=En Noir
TTITLE4=Tomorrow's Expectations
TTITLE5=Dream Of Nite
EXTD=YEAR: 2007
EXTT0=
EXTT1=
EXTT2=
EXTT3=
EXTT4=
EXTT5=
PLAYORDER=
